<?xml version="1.0" encoding="utf-8"?>
<!-- Generator: Adobe Illustrator 24.3.0, SVG Export Plug-In . SVG Version: 6.00 Build 0)  -->
<svg version="1.1" id="圖層_1" xmlns="http://www.w3.org/2000/svg" xmlns:xlink="http://www.w3.org/1999/xlink" x="0px" y="0px"
	 viewBox="0 0 68 68" style="enable-background:new 0 0 68 68;" xml:space="preserve">
<style type="text/css">
	.st0{fill:#F2B01C;}
	.st1{fill:#FFFFFF;}
</style>
<g>
	<circle class="st0" cx="47.3" cy="17.3" r="16.1"/>
	<path d="M31.1,17.3H30c0,9.5,7.7,17.3,17.3,17.3c9.5,0,17.3-7.7,17.3-17.3C64.5,7.7,56.8,0,47.3,0C37.7,0,30,7.7,30,17.3H31.1h1.2
		c0-4.1,1.7-7.9,4.4-10.6c2.7-2.7,6.5-4.4,10.6-4.4c4.1,0,7.9,1.7,10.6,4.4c2.7,2.7,4.4,6.5,4.4,10.6c0,4.1-1.7,7.9-4.4,10.6
		c-2.7,2.7-6.5,4.4-10.6,4.4c-4.1,0-7.9-1.7-10.6-4.4c-2.7-2.7-4.4-6.5-4.4-10.6H31.1z"/>
	<path class="st1" d="M55.3,23.6l-0.1,0c-2.2-4.7-7-7.9-12.6-7.9c-1.2,0-2.3,0.2-3.4,0.4c-3-3.7-7.5-6.1-12.7-6.1
		c-8.2,0-15,6-16,13.7c-5.3,1-9.4,5.6-9.4,11.1c0,6.2,5.2,11.3,11.5,11.3c2.2,0,4.3-0.6,6.1-1.7c2.2,1.1,4.9,1.7,7.7,1.7
		c2.8,0,5.4-0.6,7.6-1.7c2.2,1,4.8,1.7,7.6,1.7c2.8,0,5.4-0.6,7.6-1.7c1.8,1.1,3.8,1.7,6,1.7c6.4,0,11.5-5,11.5-11.3
		S61.7,23.6,55.3,23.6z"/>
	<path d="M55.3,23.6l-0.1-1.2l-0.1,0l0.1,1.2l1-0.5c-2.4-5.1-7.6-8.6-13.6-8.6c-1.3,0-2.5,0.2-3.7,0.5l0.3,1.1l0.9-0.7
		c-3.2-4-8.1-6.5-13.6-6.5c-8.8,0-16,6.4-17.1,14.7l1.1,0.2l-0.2-1.1C4.5,23.7,0,28.8,0,34.8c0,3.4,1.4,6.5,3.7,8.8
		c2.3,2.2,5.5,3.6,9,3.6c2.5,0,4.8-0.7,6.7-1.9l-0.6-1l-0.5,1c2.4,1.2,5.2,1.8,8.2,1.8c3,0,5.7-0.6,8.1-1.8l-0.5-1l-0.5,1
		c2.3,1.1,5.1,1.8,8.1,1.8c3,0,5.8-0.7,8.1-1.8l-0.5-1l-0.6,1c1.9,1.2,4.2,1.9,6.6,1.9c3.5,0,6.7-1.4,9-3.6c2.3-2.2,3.7-5.4,3.7-8.8
		c0-3.4-1.4-6.5-3.7-8.8c-2.3-2.2-5.5-3.6-9-3.6l-0.1,0L55.3,23.6v1.2c2.9,0,5.5,1.1,7.3,3c1.9,1.8,3,4.4,3,7.1c0,2.8-1.2,5.3-3,7.1
		c-1.9,1.8-4.5,3-7.3,3c-2,0-3.9-0.6-5.5-1.5c-0.3-0.2-0.7-0.2-1.1-0.1c-2,1-4.5,1.6-7.1,1.6c-2.6,0-5.1-0.6-7.1-1.5
		c-0.3-0.2-0.7-0.2-1,0c-2,1-4.4,1.5-7.1,1.5c-2.7,0-5.2-0.6-7.2-1.6c-0.4-0.2-0.8-0.2-1.1,0.1c-1.6,1-3.5,1.6-5.5,1.6
		c-2.9,0-5.5-1.1-7.3-3c-1.9-1.8-3-4.4-3-7.1c0-4.9,3.6-9,8.4-9.9c0.5-0.1,0.9-0.5,0.9-1c0.9-7.2,7.2-12.7,14.8-12.7
		c4.8,0,9.1,2.2,11.8,5.6c0.3,0.4,0.7,0.5,1.2,0.4c1-0.3,2.1-0.4,3.2-0.4c5.1,0,9.5,3,11.5,7.2c0.2,0.4,0.6,0.7,1.1,0.7l0.1,0
		L55.3,23.6v1.2V23.6z"/>
	<path d="M25,46.1v16.6c0,0.6,0.5,1.2,1.2,1.2c0.6,0,1.2-0.5,1.2-1.2V46.1c0-0.6-0.5-1.2-1.2-1.2C25.5,44.9,25,45.4,25,46.1"/>
	<path d="M25,66.4v0.4c0,0.6,0.5,1.2,1.2,1.2c0.6,0,1.2-0.5,1.2-1.2v-0.4c0-0.6-0.5-1.2-1.2-1.2C25.5,65.2,25,65.8,25,66.4"/>
	<path d="M53.1,46.7v13.2c0,0.6,0.5,1.2,1.2,1.2c0.6,0,1.2-0.5,1.2-1.2V46.7c0-0.6-0.5-1.2-1.2-1.2C53.6,45.6,53.1,46.1,53.1,46.7"
		/>
	<path d="M53.1,63.6v0.4c0,0.6,0.5,1.2,1.2,1.2c0.6,0,1.2-0.5,1.2-1.2v-0.4c0-0.6-0.5-1.2-1.2-1.2C53.6,62.5,53.1,63,53.1,63.6"/>
	<path d="M39,46.7v8.6c0,0.6,0.5,1.2,1.2,1.2c0.6,0,1.2-0.5,1.2-1.2v-8.6c0-0.6-0.5-1.2-1.2-1.2C39.6,45.6,39,46.1,39,46.7"/>
	<path d="M39,59v0.4c0,0.6,0.5,1.2,1.2,1.2c0.6,0,1.2-0.5,1.2-1.2V59c0-0.6-0.5-1.2-1.2-1.2C39.6,57.9,39,58.4,39,59"/>
	<path d="M10.9,46.5V55c0,0.6,0.5,1.2,1.2,1.2c0.6,0,1.2-0.5,1.2-1.2v-8.6c0-0.6-0.5-1.2-1.2-1.2C11.4,45.3,10.9,45.9,10.9,46.5"/>
	<path d="M10.9,58.8v0.4c0,0.6,0.5,1.2,1.2,1.2c0.6,0,1.2-0.5,1.2-1.2v-0.4c0-0.6-0.5-1.2-1.2-1.2C11.4,57.6,10.9,58.1,10.9,58.8"/>
</g>
</svg>
